<svg width="24" height="24" viewBox="0 0 24 24" fill="none" xmlns="http://www.w3.org/2000/svg">
<path d="M3.62109 23H20.3789V18.4453C20.3789 16.6683 18.9332 15.2227 17.1562 15.2227H6.84375C5.06678 15.2227 3.62109 16.6683 3.62109 18.4453V23ZM9.74586 19.7031L11.7403 21.7109H7.9199C8.31753 20.8593 8.96009 20.1633 9.74586 19.7031ZM11.0544 19.1913C11.3606 19.1248 11.6771 19.0898 12 19.0898C13.7674 19.0898 15.3438 20.134 16.0801 21.7109H13.5573L11.0544 19.1913ZM17.1562 16.5117C18.2224 16.5117 19.0898 17.3791 19.0898 18.4453V21.7109H17.4698C16.6744 19.4626 14.5416 17.8008 12 17.8008C11.3147 17.8008 10.649 17.9202 10.0218 18.1519L8.39247 16.5117H17.1562ZM4.91016 18.4453C4.91016 17.4644 5.64454 16.6523 6.5923 16.5286L8.817 18.7681C7.74377 19.4871 6.94782 20.5304 6.53021 21.7109H4.91016V18.4453Z" fill="#404040"/>
<path d="M16.5117 10.7109V7.16962C17.1866 6.64953 17.8008 5.96637 17.8008 4.91016C17.8008 2.36989 14.6296 1 12 1C9.34573 1 6.19922 2.38424 6.19922 4.91016C6.19922 5.96637 6.81337 6.64953 7.48828 7.16962V10.7109C7.48828 13.1987 9.51224 15.2227 12 15.2227C14.4878 15.2227 16.5117 13.1987 16.5117 10.7109ZM12 2.28906C13.7738 2.28906 16.5117 3.17581 16.5117 4.91016C16.5117 5.30783 16.3637 5.66877 15.6577 6.19922H8.34233C7.63631 5.66877 7.48828 5.30783 7.48828 4.91016C7.48828 3.17168 10.2255 2.28906 12 2.28906ZM15.2227 7.48828C15.2227 8.53642 13.7469 9.42188 12 9.42188C10.2531 9.42188 8.77734 8.53642 8.77734 7.48828H15.2227ZM12 13.9336C10.223 13.9336 8.77734 12.4879 8.77734 10.7109V9.75656C9.68716 10.414 10.8671 10.7109 12 10.7109C13.1323 10.7109 14.3125 10.4142 15.2227 9.75656V10.7109C15.2227 12.4879 13.777 13.9336 12 13.9336Z" fill="#404040"/>
</svg>
